<?xml version="1.0" encoding="utf-8"?>
<!-- Generator: Adobe Illustrator 21.0.0, SVG Export Plug-In . SVG Version: 6.00 Build 0)  -->
<svg version="1.1" id="Laag_1" xmlns="http://www.w3.org/2000/svg" xmlns:xlink="http://www.w3.org/1999/xlink" x="0px" y="0px"
	 viewBox="0 0 841.9 595.3" style="enable-background:new 0 0 841.9 595.3;" xml:space="preserve">
<style type="text/css">
	.st0{fill:none;stroke:#000000;stroke-miterlimit:10;}
	.st1{fill:#FFFFFF;}
	.st2{fill:#B3D335;}
	.st3{fill:#BFD732;stroke:#385628;stroke-miterlimit:10;}
	.st4{fill:#C7E1A3;}
	.st5{fill:#79C143;}
	.st6{fill:#FDB829;}
</style>
<polygon class="st0" points="82.5,346.1 106.8,361.6 106.7,391.1 82.5,375.6 "/>
<path class="st1" d="M149.4,101.3"/>
<polygon class="st2" points="72.9,174.9 98.4,189.7 98.4,160.2 72.9,145.5 "/>
<path class="st3" d="M123.9,174.9l-25.5,14.7L123.9,174.9z"/>
<polygon class="st2" points="98.4,189.7 98.4,337 123.9,351.7 123.9,174.9 "/>
<polygon class="st2" points="21.9,351.7 21.9,410.6 47.4,425.3 47.4,366.4 "/>
<polygon class="st4" points="123.9,174.7 123.9,351.4 72.9,380.9 72.9,351.4 47.4,366.1 47.4,425.1 149.4,366.1 149.3,159.9 "/>
<polygon class="st4" points="98.4,160.2 98.4,189.7 174.9,145.5 174.9,116 "/>
<polygon class="st5" points="21.9,351.7 47.4,366.4 72.9,351.7 47.4,337 "/>
<polygon class="st5" points="98.4,337 123.9,351.7 72.9,381.2 72.9,351.7 "/>
<polygon class="st5" points="72.9,145.5 98.4,160.2 174.9,116 149.4,101.3 "/>
<path class="st0" d="M327.1,156.3"/>
<g>
	<polygon class="st6" points="287.1,315.6 312.6,334.7 338.1,314.4 312.6,299.8 	"/>
	<polygon class="st2" points="287.1,315.6 287.1,327.4 312.6,342.1 312.6,334.7 	"/>
	<polygon class="st4" points="295.4,352 295.3,381.5 338.1,356.8 338.1,314.4 312.6,334.7 312.6,342.1 	"/>
	<polygon class="st5" points="287.1,327.4 271.2,336.5 295.4,352 312.6,342.1 	"/>
	<polygon class="st6" points="271.2,336.5 271.2,366 295.3,381.5 295.4,352 	"/>
</g>
<g>
	<polygon class="st2" points="286.5,268.3 286.5,310.9 312,331.2 312,279.8 	"/>
	<polygon class="st4" points="337.5,265.9 312,279.8 312,331.2 337.5,310.9 	"/>
	<polygon class="st6" points="286.5,268.3 312,252 337.5,265.9 312,279.8 	"/>
</g>
<g>
	<polygon class="st2" points="286.2,153.7 286.2,217 311.3,193 311.7,168.5 	"/>
	<polygon class="st4" points="336.8,204.7 336.8,154.1 311.7,168.5 311.3,193 	"/>
	<polygon class="st6" points="286.2,217 311.7,227.6 336.8,204.7 311.3,193 	"/>
	<polygon class="st6" points="286.2,153.7 311.7,139.1 336.8,154.1 311.7,168.5 	"/>
</g>
<g>
	<polygon class="st5" points="258.4,137.2 283.9,151.8 290,148.4 286,121.2 	"/>
	<polygon class="st2" points="258.4,166.6 283.9,181.3 283.9,151.8 258.4,137.2 	"/>
	<polygon class="st4" points="309.2,166.4 283.9,181.3 283.9,151.8 290,148.4 	"/>
	<polygon class="st6" points="286,121.2 309.4,137.2 309.2,166.4 290,148.4 	"/>
</g>
<g>
	<polygon class="st5" points="287.6,119.8 291.6,146.9 338.6,119.8 330,95.4 	"/>
	<polygon class="st4" points="311.1,165.2 357.2,138.6 338.6,119.8 291.6,146.9 	"/>
	<polygon class="st6" points="330,95.4 355.5,110.1 357.2,138.6 338.6,119.8 	"/>
</g>
<g>
	<polyline class="st4" points="340.6,118.5 359.2,137.3 364.1,134.4 364.1,105 340.6,118.5 	"/>
	<polygon class="st5" points="332,94.1 338.1,90.5 364.1,105 340.6,118.5 	"/>
</g>
<g>
	<path class="st2" d="M286.2,221.3"/>
	<path class="st2" d="M311.7,230.4"/>
	<polygon class="st4" points="311.3,195.9 311.3,224.4 337.2,236.2 336.8,207.6 	"/>
	<polygon class="st2" points="286.2,221.3 311.3,195.9 311.3,224.4 286.8,242.7 	"/>
	<polygon class="st6" points="311.7,252 337.2,236.2 311.3,224.4 286.8,242.7 	"/>
</g>
<g>
	<polygon class="st4" points="312,227.8 337.5,239.9 337.5,261.2 312,276.3 	"/>
	<polygon class="st2" points="286.5,246.2 286.5,264.5 312,276.3 312,227.8 	"/>
</g>
<g>
	<polygon class="st5" points="267.5,338.9 234.7,357.8 257.9,373.9 291.8,354.4 	"/>
	<polygon class="st4" points="232.4,418.1 291.7,383.9 291.8,354.4 257.9,373.9 232.4,395.7 	"/>
	<polygon class="st2" points="206.9,378.1 206.9,403.4 232.4,418.1 232.4,395.7 	"/>
	<polygon class="st6" points="234.7,357.8 206.9,378.1 232.4,395.7 257.9,373.9 	"/>
</g>
<g>
	<polygon class="st2" points="206.9,339.6 206.9,373.3 232.4,390.8 232.4,354.3 	"/>
	<polygon class="st5" points="232.4,324.9 257.9,339.6 232.4,354.3 206.9,339.6 	"/>
	<polygon class="st4" points="232.4,390.8 257.9,369.1 257.9,339.6 232.4,354.3 	"/>
</g>
<path class="st0" d="M509.8,143.5"/>
<g>
	<polygon class="st6" points="481.2,364.1 506.9,383 532.2,362.5 506.5,348.1 	"/>
	<polygon class="st2" points="481.2,364.1 481.3,375.9 506.9,390.4 506.9,383 	"/>
	<polygon class="st4" points="489.9,400.5 490,430 532.6,404.9 532.2,362.5 506.9,383 506.9,390.4 	"/>
	<polygon class="st5" points="481.3,375.9 465.5,385.2 489.9,400.5 506.9,390.4 	"/>
	<polygon class="st6" points="465.5,385.2 465.7,414.7 490,430 489.9,400.5 	"/>
</g>
<g>
	<polygon class="st2" points="487.2,308.8 487.2,351.3 512.7,371.7 512.7,320.2 	"/>
	<polygon class="st4" points="538.2,306.4 512.7,320.2 512.7,371.7 538.3,351.3 	"/>
	<polygon class="st6" points="487.2,308.8 512.7,292.5 538.2,306.4 512.7,320.2 	"/>
</g>
<g>
	<polygon class="st2" points="475.5,149.4 475.5,212.7 500.6,188.7 501,164.2 	"/>
	<polygon class="st4" points="526,200.4 526,149.7 501,164.2 500.6,188.7 	"/>
	<polygon class="st6" points="475.5,212.7 501,223.2 526,200.4 500.6,188.7 	"/>
	<polygon class="st6" points="475.5,149.4 501,134.7 526,149.7 501,164.2 	"/>
</g>
<g>
	<polygon class="st5" points="429.4,125.6 454.9,140.3 461,136.8 457,109.7 	"/>
	<polygon class="st2" points="429.4,155 454.9,169.8 454.9,140.3 429.4,125.6 	"/>
	<polygon class="st4" points="480.2,154.8 454.9,169.8 454.9,140.3 461,136.8 	"/>
	<polygon class="st6" points="457,109.7 480.4,125.6 480.2,154.8 461,136.8 	"/>
</g>
<g>
	<polygon class="st5" points="470.4,107 474.4,134.2 521.4,107 512.7,82.6 	"/>
	<polygon class="st4" points="493.9,152.4 539.9,125.8 521.4,107 474.4,134.2 	"/>
	<polygon class="st6" points="512.7,82.6 538.2,97.3 539.9,125.8 521.4,107 	"/>
</g>
<g>
	<polyline class="st4" points="535.4,106.6 554,125.3 558.9,122.5 558.9,93 535.4,106.6 	"/>
	<polygon class="st5" points="526.8,82.1 532.9,78.6 558.9,93 535.4,106.6 	"/>
</g>
<g>
	<path class="st2" d="M489.3,233"/>
	<path class="st2" d="M514.8,242.1"/>
	<polygon class="st4" points="514.3,207.6 514.3,236.1 540.2,247.9 539.8,219.3 	"/>
	<polygon class="st2" points="489.3,233 514.3,207.6 514.3,236.1 489.9,254.4 	"/>
	<polygon class="st6" points="514.7,263.8 540.2,247.9 514.3,236.1 489.9,254.4 	"/>
</g>
<g>
	<polygon class="st4" points="495.9,259.4 521.4,271.5 521.4,292.8 495.9,307.8 	"/>
	<polygon class="st2" points="470.4,277.7 470.4,296 495.9,307.8 495.9,259.4 	"/>
</g>
<g>
	<polygon class="st5" points="460.1,400.1 422.4,404.2 437.1,428.2 476,424 	"/>
	<polygon class="st4" points="396,458.3 464,451 476,424 437.1,428.2 405,437.8 	"/>
	<polygon class="st2" points="388.8,411.5 378.6,434.6 396,458.3 405,437.8 	"/>
	<polygon class="st6" points="422.4,404.2 388.8,411.5 405,437.8 437.1,428.2 	"/>
</g>
<g>
	<polygon class="st2" points="370.4,356.2 370.4,389.9 396,407.4 396,370.9 	"/>
	<polygon class="st5" points="396,341.5 421.5,356.2 396,370.9 370.4,356.2 	"/>
	<polygon class="st4" points="396,407.4 421.5,385.7 421.5,356.2 396,370.9 	"/>
</g>
<path class="st0" d="M738.1,147.5"/>
<g>
	<polygon class="st6" points="731.8,414 757.5,432.9 782.8,412.4 757.2,398 	"/>
	<polygon class="st2" points="731.8,414 731.9,425.8 757.6,440.3 757.5,432.9 	"/>
	<polygon class="st4" points="740.5,450.4 740.7,479.9 783.2,454.8 782.8,412.4 757.5,432.9 757.6,440.3 	"/>
	<polygon class="st5" points="731.9,425.8 716.1,435.1 740.5,450.4 757.6,440.3 	"/>
	<polygon class="st6" points="716.1,435.1 716.4,464.6 740.7,479.9 740.5,450.4 	"/>
</g>
<g>
	<polygon class="st2" points="714,336.9 714,379.5 739.5,399.8 739.5,348.4 	"/>
	<polygon class="st4" points="765,334.5 739.5,348.4 739.5,399.8 765,379.5 	"/>
	<polygon class="st6" points="714,336.9 739.5,320.6 765,334.5 739.5,348.4 	"/>
</g>
<g>
	<polygon class="st2" points="718.1,166.3 718.1,229.6 743.1,205.6 743.6,181.1 	"/>
	<polygon class="st4" points="768.6,217.3 768.6,166.7 743.6,181.1 743.1,205.6 	"/>
	<polygon class="st6" points="718.1,229.6 743.6,240.2 768.6,217.3 743.1,205.6 	"/>
	<polygon class="st6" points="718.1,166.3 743.6,151.7 768.6,166.7 743.6,181.1 	"/>
</g>
<g>
	<polygon class="st5" points="640.6,149.6 667.8,160.8 673.4,156.6 665.9,130.2 	"/>
	<polygon class="st2" points="644.4,178.8 671.7,190.1 667.8,160.8 640.6,149.6 	"/>
	<polygon class="st4" points="694.8,172 671.7,190.1 667.8,160.8 673.4,156.6 	"/>
	<polygon class="st6" points="665.9,130.2 691.2,143 694.8,172 673.4,156.6 	"/>
</g>
<g>
	<polygon class="st5" points="698.7,111.1 702.7,138.2 749.7,111.1 741,86.6 	"/>
	<polygon class="st4" points="722.1,156.4 768.2,129.8 749.7,111.1 702.7,138.2 	"/>
	<polygon class="st6" points="741,86.6 766.5,101.4 768.2,129.8 749.7,111.1 	"/>
</g>
<g>
	<polyline class="st4" points="786.7,100.8 803,121.5 808.2,119.2 811.5,90 786.7,100.8 	"/>
	<polygon class="st5" points="780.8,75.5 787.3,72.7 811.5,90 786.7,100.8 	"/>
</g>
<g>
	<path class="st2" d="M754.2,246.1"/>
	<path class="st2" d="M777.1,260.6"/>
	<polygon class="st4" points="784.1,226.8 778,254.6 800.7,271.7 806.5,243.7 	"/>
	<polygon class="st2" points="754.2,246.1 784.1,226.8 778,254.6 750.1,267.2 	"/>
	<polygon class="st6" points="772.4,281.7 800.7,271.7 778,254.6 750.1,267.2 	"/>
</g>
<g>
	<polygon class="st4" points="730.3,269.1 757.6,276.1 761.7,297 739.6,316.7 	"/>
	<polygon class="st2" points="708.8,292.1 712.3,310 739.6,316.7 730.3,269.1 	"/>
</g>
<g>
	<polygon class="st5" points="696.8,424.9 659.3,419.7 667.7,446.6 706.4,452 	"/>
	<polygon class="st4" points="620.4,465.7 688.2,475.2 706.4,452 667.7,446.6 634.2,448 	"/>
	<polygon class="st2" points="624.9,418.5 609.3,438.4 620.4,465.7 634.2,448 	"/>
	<polygon class="st6" points="659.3,419.7 624.9,418.5 634.2,448 667.7,446.6 	"/>
</g>
<g>
	<polygon class="st2" points="592.1,350.1 592.1,383.8 617.7,401.3 617.7,364.8 	"/>
	<polygon class="st5" points="617.7,335.4 643.2,350.1 617.7,364.8 592.1,350.1 	"/>
	<polygon class="st4" points="617.7,401.3 643.2,379.6 643.2,350.1 617.7,364.8 	"/>
</g>
</svg>
