<svg id="Laag_1" data-name="Laag 1" xmlns="http://www.w3.org/2000/svg" viewBox="0 0 382 514"><defs><style>.cls-1{fill:#ab2129;}.cls-2{fill:#9c1c1f;}.cls-3{fill:#ef954b;}.cls-4{fill:#cc3636;}.cls-5{fill:#f5841f;}.cls-6{fill:#680d11;}.cls-7{fill:#fff;}</style></defs><title>Tekengebied 1</title><path class="cls-1" d="M193.33,282s-4.83,25.66,0,45.38,17.12,33.38,42.7,37.72c0,0-42.85-9.76-37.57-41.55,0,0,9.83,5.93,4.62,19a19.76,19.76,0,0,0,2.6-11s5.2,7.73,3.61,16.48c0,0,4.26-3.83.58-17.78L200.76,316,200,296.48l-1.88-21.23-7.37-.87Z"/><path class="cls-2" d="M175.2,348.1s-5.89-49.67,3.45-59,9.95,1.27,9.95,1.27l-4,23.34Z"/><path class="cls-1" d="M163.69,346.37s.54,24.71,6.25,34.18c0,0-10.28-37.18,3.48-65s22.49-32.39,22.49-32.39L193.78,273,184,277.36l-14,22.4-5.06,16.33Z"/><path class="cls-1" d="M167.55,317.93l6.92-8.93v26.22l29.63,41.94,13.79,30.22s20.34,16.82,14.68,46.35-77.3,33.92-50.58-37c0,0-5.73,30.7,15.32,38.15s30.12-12.8,13-23.27-30-32.69-31.74-35.72c0,0-5.51,9.15-11,10.81s-9.31-5.86-9.31-5.86,12.23,13.43,16.84-9.25a105,105,0,0,1-2.75-26.45c.41-14.34-6.3-22-6.3-22Z"/><path class="cls-2" d="M197.77,275.29l2,11-5.43,11.06S182.79,343.76,217,368.94s63.31,49.86,59.89,74.91-10.1,49.83-35.22,58.53-55.28,8.87-72.56-17.69c0,0,43.91,35.73,73.27-8.16S228.2,412.3,228.2,412.3,131.38,370.92,197.77,275.29Z"/><path class="cls-2" d="M202.13,279.89a7.09,7.09,0,0,0,3.9,7.42,4.94,4.94,0,0,1-5.49-1.57s4.55,17,8.67,20.67c0,0-5.71-5.13-5.93-6.79,0,0-.72,13.92,3.18,20.15S218.9,334.3,218.9,334.3s12.5,11.34,5.78,24.57c0,0,6.79-14.52-14-29.92,0,0-17.41-15.9-12.14-32.37a36,36,0,0,0-1-18c-3.12-9.2,8.37-9.88,8.37-9.88Z"/><path class="cls-2" d="M163.69,346.37s4.17-48.77,20.92-65.14,10.62-7.48,10.62-7.48l-9.86-5.09-5.85,4.55L158.6,309.95l1.19,38.15Z"/><path class="cls-2" d="M182.42,270.64s-4.26,15.41-14.51,26S154,309,154,309s7.84-16,18.93-23.83l6.59-19.55h5.09Z"/><path class="cls-3" d="M205.44,131.55s4.62.28,10-10.23,7.48-12,17.13-13.87c0,0-23.45,2.16-35.33,14.74l-1.52,11.35Z"/><path class="cls-1" d="M314.9,87.8s36.28-33.14,41-49.94c0,0,4.17,10.34-4.31,29.94S324.3,99.86,324.3,99.86L302.19,110.7,310,89.45Z"/><path class="cls-1" d="M307.36,103.11S345,78.94,364.84,53A55.11,55.11,0,0,1,352,89.55c-14.39,17.35-42.46,28.3-42.46,28.3l-12.36-4.77Z"/><path class="cls-1" d="M305.18,110.25s46-13.64,68.76-37.71c0,0-4.47,26.87-31.93,43.84s-36.83,16-36.83,16l-14.7-10.68Z"/><path class="cls-1" d="M297.15,125.6s39.72-.38,69.21-22.49c0,0-8.53,20.71-35.43,35s-58,10-58,10l18-20.94Z"/><path class="cls-1" d="M280.1,145.31s54.18-2.86,73.9-16.3c0,0-26.46,31.91-52.68,33.84S261,167.21,261,167.21l-6.94-15.76Z"/><path class="cls-1" d="M259,159.77s50,11.62,84-8.32c0,0-23.86,30.08-71,31.52l-37.78-2.91,13.22-20.16Z"/><path class="cls-1" d="M247.13,171.58s24.38,19.76,72.18,15c0,0-12.36,1.63-21.89,8S288,205.83,267.64,204s-33.52-23.89-33.52-23.89Z"/><path class="cls-1" d="M242.45,181.81s26.24,30.88,59.73,37.71c0,0-10.3-.08-17.34,4.89s-13.74,11-27,5.73-31.5-33.28-31.5-33.28l16.21-16.8Z"/><path class="cls-1" d="M234.55,198s14.85,35.73,48.12,47.11c0,0-13.87-2.41-16.91-1.48s-20.06,4.29-25.64-2.21-17-31.77-17-31.77l5.15-20.25Z"/><path class="cls-1" d="M335.79,21s15.72,14.31,7.15,37.29-11.71,23.85-11.71,23.85-16.15,9-15.61,8.45-5.62-2.8-5.62-2.8L319.61,72S331.13,58.2,335.79,21Z"/><path class="cls-1" d="M223.16,242.71s-.42,9.55,12.48,12.15,25.36,10,25.36,10-27.6-18.39-32.23-56.94l-1.59-16L215.91,193l-2.5,31.48Z"/><path class="cls-1" d="M26.54,37.64S6.23,17.64,3.14.79c0,0,24.83,34.38,57.72,42.66L83.24,55.09l14.2,12.57-5.85,3.79-56-17.88Z"/><path class="cls-1" d="M34.47,62S14.63,52.49,3.14,22.79c0,0,52.39,35.54,88,46.66l17.22,9.71-1,10.95L46,81.65Z"/><path class="cls-1" d="M3.14,46.42s77,40.37,104.27,43.68l6,7.7-4.55,4.12-3.77-1.32L45.52,94.44,43.4,86.87S10.13,66.85,3.14,46.42Z"/><path class="cls-1" d="M105.05,100.59S34.3,89,8.56,73.19c0,0,17,33.11,55.06,39.21l54,11-6.94-20.27Z"/><path class="cls-1" d="M110.42,119.76s-13-9.39-45.28-7.44S19.08,97.8,19.08,97.8,26.84,117,50.3,126.53L120,139.2l-4.88-16Z"/><path class="cls-1" d="M115.14,134.21s-10.76-8.07-41.76-7.25-42.87-3.31-46.5-5.64c0,0,5.73,15,31.32,25.33s1.42.36,1.42.36l59.18,8.56L121.07,141Z"/><path class="cls-1" d="M116.27,152.91s-26.69-17.83-71.72-2.43c0,0,6.47,11.87,24.7,15.42l52.48,3.23Z"/><path class="cls-1" d="M115.2,166.25S88.28,150.53,51,175.4c0,0,17.43.56,23,6.41l47-6.62Z"/><path class="cls-1" d="M115.63,173.87s-40.62,5-49.83,11.51c0,0,2,5.68,10.53,7.39s47.13-10.64,47.13-10.64l-4.34-9.1Z"/><path class="cls-1" d="M118.9,177.36s-15.82,11.92-59.29,18.43c0,0,8-.38,11.38,2.38s4.66,7,12.46,7.91,12.13-.37,12.13-.37l32.42-21Z"/><path class="cls-1" d="M119.89,183.3S90.56,215.94,68.5,219.84c0,0,6.67-1.57,9.54-1.08s7.42,1,8.89,3.25,9.19,4.51,18.06-1.24l20.74-21.41L134,182.12Z"/><path class="cls-1" d="M127.25,187.76s-20.38,39-41.73,49.65a54.6,54.6,0,0,1,15.5-2.06c7.8.27,12.36-.12,26.23-12.85l12.68-13.71,2.49-13.66-10.73-9.75Z"/><path class="cls-1" d="M138.18,203.18s-23.4,43.7-34.67,52.54c0,0,19-1.23,31.94-16.38l17.05-32.28-9.43-10.19Z"/><path class="cls-1" d="M148.2,205.84s-12.12,39.64-24.75,53.35c0,0,5.13-2.91,5.88-4.23s24.28-41.73,24.28-41.73L151,199.36Z"/><path class="cls-1" d="M145.42,250.45s-1.19,20.37,1.05,24.49c0,0,2.6-9.39,7.08-12.25s12.56-9.55,8.34-16.86l-1.4-4.27-3.63-29.26-12.7,34.61Z"/><path class="cls-2" d="M158.68,208s-3.21-.14-1.82-1,0,5.24,0,5.24S159.76,212.08,158.68,208Z"/><path class="cls-1" d="M156.86,212.3s3,24.35,2,40c0,0,1.52-7.37,7-9.54,0,0,11.85-11.06-7.23-34.68C158.68,208,159.05,209.74,156.86,212.3Z"/><path class="cls-4" d="M159.22,187.54s-9.59-6.61-13.44-8.35-18-7.86-19.29-30.24a20.51,20.51,0,0,1,.65-7.15c1-2.87,3.28-14.14-.72-19.62,0,0,2.83-13.44-3.83-19.51,0,0,1.84-11.27-2-16.91v4.12s-9.87-28.93-44.5-42.48c0,0-16.2-4.88-31.54-28.83,0,0,6.34,15,15.34,24,0,0,9.65,9.59,27.69,20.59,0,0-9.27-1.84-14.42-4.23a132.89,132.89,0,0,0,15,9C95.58,71.62,102,75.52,104,81.7c0,0-8.51.43,5.42,15a4.15,4.15,0,0,1-5.2-1s-1.35,4.23,7.37,15.93c0,0-4.61,7.8,3,15.39,0,0-.49,6,1.08,8.35s3.85,2.76,1.84,12.25-3.63,12.57-1.63,17.23c0,0-4.44,7.32,3,12.57,0,0-4.82,6.12,11.06,11.38l2,2.49H129l3.36,2.6-1.73,3,3.58-2,.22,5.64,4-2-1.3,5,4.34-1.63-.22,3a12.55,12.55,0,0,0,3.9-3.25s-2.15,12.18-3.15,14a81.63,81.63,0,0,0,7.15-11.49,57,57,0,0,1,0,10,17.93,17.93,0,0,0,3.36-7s2.17,6.39,2.17,7.8c0,0,2.38-1.41,4-6.83,0,0,17.85,22.4,7.23,34.68,0,0,3.4,2.75,3,6.21,0,0,.4-1.23.87-1.3,0,0,.61,7.77-2.17,10.91,0,0,2.6-.87,4.55-5.2a39.61,39.61,0,0,1-6.61,21.6s3.58-1,8.53-9.18c0,0,1.73,5.13-6.07,13.51a33.19,33.19,0,0,0,9.6-10.33s6.94,26.41,24.5,6.72c0,0-.18,4.37-1.16,6.5a32.86,32.86,0,0,0,12-21.89s1.63,6.54-1.88,11.85c0,0,10.62-13.3,8.82-29.84,0,0,2.17,3.69,1.3,12.5,0,0,4.64-13.58.2-35.7a25,25,0,0,1,2.76,5.35s1.52-15.75-6-27.75c0,0,7.51,3.65,7.8,10.62,0,0,1.26-1,1.59-6l1.23,6.5,1.52-5.49,1.81,1.81s.65-6.72,1.37-7.8l1.08,1.59s.72-11.31,3.9-13.51,7.26-3.72,7.88-9.54,5.71-13.51,16.33-16.48,15.72-7,15.68-12.21c0,0,15.14-7.26,14.24-16.55,0,0,8.91-6.86,10.8-13.15s4.17-16,6.61-19S329,65.72,315,17c0,0,10.19,74.9-40.1,111.64a348.59,348.59,0,0,0-29.48,24.71s-7.8,4.88-14.52,21.24-13.66,10.84-13.66,10.84a44.54,44.54,0,0,0-10.41-13c-6.94-5.85-6.07-10.84-6.07-10.84l5.64,5.64s-6.61-7.8-4.77-22.76c0,0-.11.68,2,2.75a46.37,46.37,0,0,1,.87-5.56c.65-2.93,2.93-7.59,1.08-10.19,0,0-8.67,3.79-8.24-9.32,0,0-6.43-2-11.13,3a157.17,157.17,0,0,0-10,12.36s-2.42,3.11-4.84,3.47a3.67,3.67,0,0,1-4.29-2.92q0-.16,0-.33c-.4-2.1,1.63-3.76,3.83-2.24,0,0-.07-1.81-2.89-1.59a3.51,3.51,0,0,0-3.25,2.82s-1.48,4,2.31,5.71,5.56.51,5.56.51-.29,10.37-7.15,14.09l3.9-1.88a49.51,49.51,0,0,0-2.67,8.6,7.16,7.16,0,0,1-3.18,5,6,6,0,0,1-6.07.22c-3.47-1.7-2.82-6-2.6-6.72a3.53,3.53,0,0,1,5.06-2.17s-5-3.4-6.72,3.61,8.74,10.66,11.49,6.43C164.61,170.17,159.73,179.7,159.22,187.54Z"/><path class="cls-5" d="M213.41,179.64v2.56a4.67,4.67,0,0,1-1.82-1.28c-.72-.89,1.32,1.5.91,5.18,0,0-.47-1.64-1.07-2s.78,6.94,0,9a10.77,10.77,0,0,0-1.22-2.67c-.47-.4,1.77,8.74-.36,13.51,0,0-1.55-4.48-2.6-4.48,0,0,1,11-1.59,16,0,0-2.13-8.89-6.65-9.75s-5.35-2.53-5.35-2.53-2.57-3-8-1c0,0-4.19-.33-5.71-3.9l-1.58-.29c-2.72-2-4.64-10.33-4.64-10.33a5,5,0,0,1-1.66,1.08,12.29,12.29,0,0,1,.36-6.07,7.21,7.21,0,0,1-2.89.94c-1-9.83,4.19-10,4.19-10a39.21,39.21,0,0,1,1.59-8l-2,2s.83-8.24,1.45-10.62,4.77-9.1,4.77-9.1a21.34,21.34,0,0,0-4.34,5.64c2.17-10.26,12.07-20.74,12.07-20.74s7.85-8.32,9.89-9.11c0,0-.53,10.84,8.25,8.1,0,0,2,1.37-1.08,10.19,0,0-1.16,4.87-.22,8.34a10.22,10.22,0,0,1-2.6-5.53s-2.17,13.3,4.77,22.76l-5.64-5.64s-1,4.77,6.07,10.84S213.41,179.64,213.41,179.64Z"/><circle class="cls-6" cx="190.05" cy="130.98" r="2.56"/><circle class="cls-7" cx="190.72" cy="130.72" r="1.71"/><path class="cls-1" d="M150.09,212.77S128.4,263.31,117,271.62c0,0,39.75-12.66,40.07-57.63l-.2-1.68-2.19,2.56a21.54,21.54,0,0,0-2.17-7.8Z"/><path class="cls-1" d="M152.85,313.42C119.14,335,137,367.83,137,367.83c-14.63-22-2.38-44-2.38-44,3.69-8.67,15-20.86,26.77-32s15.94-20.15,15.94-20.15.15,11.43-12.8,24S152.85,313.42,152.85,313.42Z"/><path class="cls-2" d="M128.35,444.72s1.14,19.91,20.49,17.56c0,0,17.11-3.67,15-32S157.67,381,158,375.59s3.79-28,5.76-29.75c0,0-2.77-49.21,5.61-51.25l-13.2,7s-12.21,24.57-13.44,40.21-4.19,40.72,5.74,64c0,0,8.69,18.17,3.59,37.4S129.1,450.53,128.35,444.72Z"/></svg>