<svg id="Laag_1" data-name="Laag 1" xmlns="http://www.w3.org/2000/svg" viewBox="0 0 660.86 177.79"><defs><style>.cls-1{fill:#ab2129;}.cls-2{fill:#9c1c1f;}.cls-3{fill:#ef954b;}.cls-4{fill:#cc3636;}.cls-5{fill:#f5841f;}.cls-6{fill:#680d11;}.cls-7{fill:#fff;}.cls-8{font-size:108px;fill:#231f20;font-family:OpenSans-Light, Open Sans;}</style></defs><title>Tekengebied 1</title><path class="cls-1" d="M80.88,92s-1.58,8.39,0,14.84,5.6,10.92,14,12.34c0,0-14-3.19-12.29-13.59,0,0,3.21,1.94,1.51,6.22a6.46,6.46,0,0,0,.85-3.59,8.12,8.12,0,0,1,1.18,5.39s1.39-1.25.19-5.81l-3-4.68-.24-6.39-.61-6.94L80,89.48Z"/><path class="cls-2" d="M74.95,113.59S73,97.35,76.08,94.31s3.25.41,3.25.41L78,102.36Z"/><path class="cls-1" d="M71.18,113s.18,8.08,2,11.18c0,0-3.36-12.16,1.14-21.26s7.36-10.6,7.36-10.6L81,89l-3.21,1.42-4.58,7.33-1.65,5.34Z"/><path class="cls-1" d="M72.45,103.73l2.26-2.92v8.57l9.69,13.72L88.92,133a16.22,16.22,0,0,1,4.8,15.16c-1.85,9.66-25.28,11.09-16.54-12.1,0,0-1.87,10,5,12.48s9.85-4.19,4.25-7.61-9.81-10.69-10.38-11.68c0,0-1.8,3-3.61,3.53s-3-1.92-3-1.92,4,4.39,5.51-3a34.34,34.34,0,0,1-.9-8.65A10.86,10.86,0,0,0,71.95,112Z"/><path class="cls-2" d="M82.33,89.78,83,93.39,81.21,97s-3.78,15.17,7.4,23.4,20.71,16.31,19.59,24.5-3.3,16.3-11.52,19.14S78.6,167,72.95,158.27c0,0,14.36,11.69,24-2.67s-4.64-21-4.64-21S60.61,121.06,82.33,89.78Z"/><path class="cls-2" d="M83.76,91.28A2.32,2.32,0,0,0,85,93.71a1.62,1.62,0,0,1-1.8-.51s1.49,5.58,2.84,6.76c0,0-1.87-1.68-1.94-2.22,0,0-.24,4.55,1,6.59a34,34,0,0,0,4.06,4.75s4.09,3.71,1.89,8c0,0,2.22-4.75-4.58-9.78,0,0-5.7-5.2-4-10.59a11.79,11.79,0,0,0-.33-5.9c-1-3,2.74-3.23,2.74-3.23Z"/><path class="cls-2" d="M71.18,113s1.36-16,6.84-21.31,3.47-2.45,3.47-2.45l-3.23-1.67L76.36,89.1l-6.84,12,.39,12.48Z"/><path class="cls-2" d="M77.31,88.26a22.49,22.49,0,0,1-4.74,8.5C69.21,100.21,68,100.8,68,100.8s2.57-5.25,6.19-7.8l2.15-6.39H78Z"/><path class="cls-3" d="M84.84,42.77s1.51.09,3.28-3.35,2.45-3.93,5.6-4.54c0,0-7.67.71-11.56,4.82l-.5,3.71Z"/><path class="cls-1" d="M120.64,28.46s11.87-10.84,13.43-16.33c0,0,1.36,3.38-1.41,9.79s-8.94,10.49-8.94,10.49l-7.23,3.55L119,29Z"/><path class="cls-1" d="M118.17,33.46s12.31-7.91,18.8-16.38A18,18,0,0,1,132.78,29c-4.71,5.68-13.89,9.26-13.89,9.26l-4-1.56Z"/><path class="cls-1" d="M117.46,35.8s15-4.46,22.49-12.33A22.83,22.83,0,0,1,129.5,37.8c-9,5.55-12,5.25-12,5.25l-4.81-3.49Z"/><path class="cls-1" d="M114.83,40.82s13-.12,22.63-7.36c0,0-2.79,6.78-11.59,11.43s-19,3.28-19,3.28l5.88-6.85Z"/><path class="cls-1" d="M109.25,47.27s17.72-.94,24.17-5.33c0,0-8.65,10.44-17.23,11.07S103,54.43,103,54.43l-2.27-5.16Z"/><path class="cls-1" d="M102.34,52s16.34,3.8,27.47-2.72c0,0-7.8,9.84-23.24,10.31l-12.35-1L98.54,52Z"/><path class="cls-1" d="M98.47,55.86s8,6.46,23.61,4.9a19.18,19.18,0,0,0-7.16,2.62c-3.12,2.09-3.07,3.68-9.74,3.06s-11-7.81-11-7.81Z"/><path class="cls-1" d="M96.94,59.2s8.58,10.1,19.54,12.33a11.15,11.15,0,0,0-5.67,1.6c-2.3,1.63-4.49,3.61-8.82,1.87s-10.3-10.88-10.3-10.88L97,58.63Z"/><path class="cls-1" d="M94.36,64.5S99.22,76.18,110.1,79.9c0,0-4.54-.79-5.53-.48s-6.56,1.4-8.39-.72-5.56-10.39-5.56-10.39l1.68-6.62Z"/><path class="cls-1" d="M127.47,6.62a11.3,11.3,0,0,1,2.34,12.19c-2.8,7.52-3.83,7.8-3.83,7.8s-5.28,2.94-5.1,2.77-1.84-.92-1.84-.92l3.15-5.18S125.95,18.77,127.47,6.62Z"/><path class="cls-1" d="M90.63,79.12s-.14,3.12,4.08,4a30.93,30.93,0,0,1,8.3,3.26A27.2,27.2,0,0,1,92.47,67.73l-.52-5.24-3.69.35-.82,10.3Z"/><path class="cls-1" d="M26.33,12.05S19.68,5.51,18.67,0c0,0,8.12,11.24,18.88,14l7.32,3.81,4.64,4.11L47.6,23.11,29.27,17.26Z"/><path class="cls-1" d="M28.92,20S22.43,16.91,18.67,7.2c0,0,17.13,11.62,28.79,15.26l5.63,3.17-.32,3.58-20.1-2.77Z"/><path class="cls-1" d="M18.67,14.92s25.19,13.21,34.1,14.29l1.95,2.52-1.49,1.35L52,32.64l-19.47-2-.7-2.48S21,21.61,18.67,14.92Z"/><path class="cls-1" d="M52,32.64s-23.14-3.79-31.56-9c0,0,5.54,10.83,18,12.82l17.66,3.59-2.27-6.63Z"/><path class="cls-1" d="M53.76,38.91S49.5,35.84,39,36.48s-15.07-4.75-15.07-4.75a19.07,19.07,0,0,0,10.21,9.4l22.79,4.14L55.29,40Z"/><path class="cls-1" d="M55.3,43.64S51.78,41,41.65,41.26s-14-1.08-15.21-1.84c0,0,1.87,4.91,10.24,8.28s.46.12.46.12l19.36,2.8.74-4.75Z"/><path class="cls-1" d="M55.67,49.75s-8.73-5.83-23.46-.8c0,0,2.12,3.88,8.08,5l17.16,1.06Z"/><path class="cls-1" d="M55.32,54.12s-8.8-5.14-21,3c0,0,5.7.18,7.54,2.1L57.24,57Z"/><path class="cls-1" d="M55.46,56.61s-13.29,1.64-16.3,3.76a4.41,4.41,0,0,0,3.45,2.42C45.39,63.35,58,59.31,58,59.31l-1.42-3Z"/><path class="cls-1" d="M56.53,57.75s-5.18,3.9-19.39,6c0,0,2.61-.12,3.72.78s1.52,2.3,4.08,2.59a11.25,11.25,0,0,0,4-.12l10.6-6.86Z"/><path class="cls-1" d="M56.86,59.69s-9.59,10.68-16.81,12a11.88,11.88,0,0,1,3.12-.35c.94.16,2.43.32,2.91,1.06s3,1.48,5.91-.41l6.78-7,2.69-5.64Z"/><path class="cls-1" d="M59.26,61.15S52.6,73.9,45.62,77.39a17.86,17.86,0,0,1,5.07-.67c2.55.09,4,0,8.58-4.2L63.41,68l.82-4.47-3.51-3.19Z"/><path class="cls-1" d="M62.84,66.2S55.19,80.49,51.5,83.38A16.4,16.4,0,0,0,61.95,78l5.58-10.56-3.08-3.33Z"/><path class="cls-1" d="M66.12,67.06s-4,13-8.09,17.45a9,9,0,0,0,1.92-1.38l7.94-13.65L67,64.94Z"/><path class="cls-1" d="M65.21,81.65s-.39,6.66.34,8c0,0,.85-3.07,2.32-4s4.11-3.12,2.73-5.52l-.46-1.4-1.19-9.57L64.79,80.5Z"/><path class="cls-2" d="M69.54,67.78s-1,0-.6-.32,0,1.72,0,1.72S69.9,69.1,69.54,67.78Z"/><path class="cls-1" d="M68.95,69.18a88.59,88.59,0,0,1,.67,13.07s.5-2.41,2.29-3.12c0,0,3.88-3.62-2.36-11.34C69.54,67.78,69.67,68.34,68.95,69.18Z"/><path class="cls-4" d="M69.72,61.08a47.14,47.14,0,0,0-4.4-2.73c-1.26-.57-5.88-2.57-6.31-9.89a6.71,6.71,0,0,1,.21-2.34c.34-.94,1.07-4.63-.24-6.42,0,0,.93-4.4-1.25-6.38,0,0,.6-3.69-.64-5.53v1.35a25.38,25.38,0,0,0-14.57-13.9s-5.3-1.6-10.32-9.43a28.81,28.81,0,0,0,5,7.83,53.09,53.09,0,0,0,9.06,6.74A27.07,27.07,0,0,1,41.57,19a43.46,43.46,0,0,0,4.89,2.94c2.43,1.21,4.54,2.48,5.18,4.5,0,0-2.78.14,1.77,4.89a1.36,1.36,0,0,1-1.7-.32s-.44,1.38,2.41,5.21a4.16,4.16,0,0,0,1,5A5.93,5.93,0,0,0,55.47,44c.51.78,1.26.9.6,4s-1.19,4.11-.53,5.64a3,3,0,0,0,1,4.11s-1.58,2,3.62,3.72l.64.82h-1l1.1.85-.57,1,1.17-.64.07,1.84,1.31-.64-.43,1.63,1.42-.53-.07,1a4.1,4.1,0,0,0,1.28-1.06,39.28,39.28,0,0,1-1,4.54,26.7,26.7,0,0,0,2.34-3.76,18.64,18.64,0,0,1,0,3.26,5.86,5.86,0,0,0,1.1-2.3A18.69,18.69,0,0,1,68.23,70a3.85,3.85,0,0,0,1.31-2.23s5.84,7.33,2.36,11.34a2.67,2.67,0,0,1,1,2s.13-.4.28-.43c0,0,.2,2.54-.71,3.57A3,3,0,0,0,74,82.6a13,13,0,0,1-2.17,7.09s1.17-.33,2.79-3c0,0,.57,1.68-2,4.42a10.86,10.86,0,0,0,3.14-3.38s2.27,8.64,8,2.2a7.6,7.6,0,0,1-.38,2.13,10.75,10.75,0,0,0,3.92-7.16,5.39,5.39,0,0,1-.61,3.88A14.7,14.7,0,0,0,89.56,79s.71,1.21.43,4.09c0,0,1.52-4.44.07-11.67a8.18,8.18,0,0,1,.9,1.75s.5-5.15-2-9.08c0,0,2.46,1.19,2.55,3.47,0,0,.41-.32.52-2l.4,2.13.5-1.8.59.59A12.93,12.93,0,0,1,94,64l.35.52s.24-3.7,1.28-4.42S98,58.86,98.21,57s1.87-4.42,5.34-5.39,5.14-2.3,5.13-4c0,0,5-2.38,4.66-5.41,0,0,2.91-2.25,3.53-4.3s1.36-5.25,2.16-6.2,6.2-10.42,1.63-26.34c0,0,3.33,24.5-13.12,36.51a114,114,0,0,0-9.64,8.08s-2.55,1.6-4.75,6.95-4.47,3.55-4.47,3.55a14.57,14.57,0,0,0-3.4-4.25c-2.27-1.91-2-3.55-2-3.55l1.84,1.84S83,51.9,83.58,47c0,0,0,.22.64.9a15.17,15.17,0,0,1,.28-1.82c.21-1,1-2.48.35-3.33,0,0-2.84,1.24-2.69-3a3.7,3.7,0,0,0-3.64,1,51.4,51.4,0,0,0-3.26,4,3.28,3.28,0,0,1-1.58,1.13,1.2,1.2,0,0,1-1.42-1.06.76.76,0,0,1,1.25-.73s0-.59-.95-.52a1.15,1.15,0,0,0-1.06.92,1.47,1.47,0,0,0,.76,1.87c1.24.57,1.82.17,1.82.17S74,49.9,71.74,51.12L73,50.5a16.19,16.19,0,0,0-.87,2.81,2.34,2.34,0,0,1-1,1.63,2,2,0,0,1-2,.07,1.94,1.94,0,0,1-.85-2.2,1.16,1.16,0,0,1,1.65-.71s-1.63-1.11-2.2,1.18,2.86,3.49,3.76,2.1A17.84,17.84,0,0,0,69.72,61.08Z"/><path class="cls-5" d="M87.44,58.5v.84a1.53,1.53,0,0,1-.6-.42,3.7,3.7,0,0,1,.3,1.69s-.15-.54-.35-.66.26,2.27,0,2.93a3.52,3.52,0,0,0-.4-.87c-.15-.13.58,2.86-.12,4.42,0,0-.51-1.47-.85-1.47,0,0,.32,3.6-.52,5.22,0,0-.7-2.91-2.17-3.19S81,66.16,81,66.16a2.32,2.32,0,0,0-2.62-.33,2.34,2.34,0,0,1-1.87-1.28L76,64.46c-.89-.66-1.52-3.38-1.52-3.38a1.64,1.64,0,0,1-.54.35,4,4,0,0,1,.12-2,2.36,2.36,0,0,1-.95.31c-.32-3.21,1.37-3.29,1.37-3.29A12.82,12.82,0,0,1,75,53.85l-.64.64s.27-2.69.47-3.47a19.89,19.89,0,0,1,1.56-3A7,7,0,0,0,75,49.88c.71-3.36,3.95-6.78,3.95-6.78a24.41,24.41,0,0,1,3.23-3s-.17,3.55,2.7,2.65c0,0,.67.45-.35,3.33a6.75,6.75,0,0,0-.07,2.73A3.34,3.34,0,0,1,83.56,47s-.71,4.35,1.56,7.44l-1.84-1.84s-.32,1.56,2,3.55S87.44,58.5,87.44,58.5Z"/><circle class="cls-6" cx="79.81" cy="42.58" r="0.84"/><circle class="cls-7" cx="80.02" cy="42.5" r="0.56"/><path class="cls-1" d="M66.74,69.33S59.64,85.86,55.91,88.58c0,0,13-4.14,13.11-18.85l-.07-.55-.72.84a7,7,0,0,0-.71-2.55Z"/><path class="cls-1" d="M67.64,102.25c-11,7.05-5.18,17.8-5.18,17.8-4.79-7.18-.78-14.39-.78-14.39,1.21-2.84,4.91-6.82,8.76-10.46a24.38,24.38,0,0,0,5.21-6.59s0,3.74-4.19,7.87S67.64,102.25,67.64,102.25Z"/><path class="cls-2" d="M59.63,145.19s.37,6.51,6.7,5.74c0,0,5.6-1.2,4.89-10.46s-2-16.11-1.92-17.89,1.24-9.14,1.88-9.73c0,0-.91-16.1,1.84-16.76L68.7,98.4s-4,8-4.4,13.15-1.37,13.32,1.88,20.92a19.74,19.74,0,0,1,1.18,12.23C65.69,151,59.87,147.09,59.63,145.19Z"/><text class="cls-8" transform="translate(162.73 129.95)">Phoenix</text></svg>