<svg id="Laag_1" data-name="Laag 1" xmlns="http://www.w3.org/2000/svg" viewBox="0 0 162 167"><defs><style>.cls-1,.cls-6{fill:#f3f3f3;}.cls-2{fill:#231f20;}.cls-3{fill:#f5841f;}.cls-4,.cls-5{fill:#fff;}.cls-5,.cls-6,.cls-7{stroke:#231f20;stroke-miterlimit:10;}.cls-7{fill:none;}.cls-8{fill:#9c1c1f;}</style></defs><title>Tekengebied 1</title><circle class="cls-1" cx="80.77" cy="83.5" r="73.93"/><polygon class="cls-1" points="111.77 97.3 58.55 43.24 66.23 35.56 119.22 88.66 123.71 100.49 111.77 97.3"/><path class="cls-2" d="M66.23,36.27l52.56,52.67,4.11,10.81L112,96.85,59.25,43.24l7-7m0-1.41-8.38,8.38,53.66,54.51,13,3.48-4.88-12.84L66.23,34.85Z"/><polygon class="cls-3" points="58.55 43.13 66.12 35.56 118.97 88.41 111.48 97.01 58.55 43.13"/><path class="cls-2" d="M66.12,36.27l52.17,52.16-6.82,7.84L59.25,43.13l6.86-6.86m0-1.41-8.27,8.27,53.66,54.62,8.14-9.36L66.12,34.85Z"/><polygon class="cls-4" points="58.55 43.24 66.23 35.56 71.53 40.86 63.91 48.7 58.55 43.24"/><path class="cls-2" d="M66.23,36.27l4.6,4.6L63.91,48l-4.65-4.74,7-7m0-1.41-8.38,8.38,6.06,6.17,8.32-8.56-6-6Z"/><polygon class="cls-5" points="122.47 127.53 42.83 127.53 42.83 46.6 122.47 127.53"/><polygon class="cls-6" points="53.84 83.5 53.84 109.07 79.41 109.07 53.84 83.5"/><line class="cls-7" x1="108.22" y1="120.08" x2="111.4" y2="116.28"/><line class="cls-7" x1="65.04" y1="75.71" x2="68.21" y2="71.91"/><line class="cls-7" x1="53.84" y1="65.14" x2="57.01" y2="61.34"/><line class="cls-7" x1="99.16" y1="116.28" x2="105.29" y2="110.07"/><line class="cls-7" x1="97.54" y1="109.07" x2="100.63" y2="105.34"/><line class="cls-7" x1="76.32" y1="87.06" x2="79.41" y2="83.33"/><line class="cls-7" x1="89.12" y1="105.34" x2="95.18" y2="99.79"/><line class="cls-7" x1="86.21" y1="97.74" x2="90.04" y2="94.57"/><line class="cls-7" x1="79.41" y1="94.57" x2="84.77" y2="89.21"/><line class="cls-7" x1="57.72" y1="71.91" x2="63.08" y2="66.55"/><line class="cls-7" x1="46.86" y1="61.34" x2="52.22" y2="55.98"/><line class="cls-7" x1="68.23" y1="83.5" x2="73.58" y2="78.14"/><polygon class="cls-8" points="63.78 48.56 71.4 40.72 77.16 46.59 69.4 54.28 63.78 48.56"/><path class="cls-2" d="M71.4,41.44l5.06,5.15-7,7-4.93-5,6.92-7.12m0-1.43-8.32,8.56L69.39,55l8.47-8.39L71.39,40Z"/></svg>