<svg id="Laag_1" data-name="Laag 1" xmlns="http://www.w3.org/2000/svg" viewBox="0 0 162 167"><defs><style>.cls-1{fill:#f3f3f3;}.cls-2{fill:#fff;}.cls-3{fill:#f5841f;}.cls-4{fill:none;stroke:#231f20;stroke-miterlimit:10;}.cls-5{fill:#231f20;}</style></defs><title>Tekengebied 1 kopie</title><circle class="cls-1" cx="81" cy="83.33" r="73"/><rect class="cls-2" x="34.18" y="59.92" width="25.57" height="58.35"/><rect class="cls-3" x="34.18" y="45.15" width="93.65" height="14.77"/><rect class="cls-4" x="34.18" y="45.15" width="93.65" height="73.12"/><line class="cls-4" x1="97.57" y1="76.12" x2="87.48" y2="99.53"/><polyline class="cls-4" points="103.33 79 111.61 87.83 103.33 96.65"/><polyline class="cls-4" points="81 79 72.72 87.83 81 96.65"/><line class="cls-4" x1="41.02" y1="67.84" x2="51.83" y2="67.84"/><line class="cls-4" x1="41.02" y1="73.33" x2="54.44" y2="73.33"/><line class="cls-4" x1="41.02" y1="78.28" x2="54.44" y2="78.28"/><line class="cls-4" x1="41.02" y1="83.33" x2="55.43" y2="83.33"/><line class="cls-4" x1="41.02" y1="89.09" x2="54.44" y2="89.09"/><line class="cls-4" x1="41.02" y1="93.95" x2="48.22" y2="93.95"/><line class="cls-4" x1="41.02" y1="98.99" x2="53.99" y2="98.99"/><line class="cls-4" x1="41.02" y1="103.95" x2="50.21" y2="103.95"/><circle class="cls-5" cx="49.17" cy="53.07" r="1.67"/><circle class="cls-5" cx="55.65" cy="53.07" r="1.67"/><circle class="cls-5" cx="42.28" cy="53.07" r="1.67"/><polyline class="cls-4" points="127.82 45.15 34.18 45.15 34.18 59.91 127.82 59.91 59.75 59.91 59.75 118.26 59.75 59.91 34.18 59.91 34.18 118.26"/></svg>